# xmcd
#
# Track frame offsets:
#	150
#	22202
#	44329
#	63981
#	86183
#	102235
#	121662
#	138764
#	155716
#	176568
#
# Disc length: 2620 seconds
#
# Revision: 1
# Processed by: cddbd v1.5.1PL0 Copyright (c) Steve Scherf et al.
# Submitted via: audiograbber 1.83.01
#
DISCID=840a3a0a
DTITLE=Vicky Leandros - Ich bin ich
DYEAR=1988
DGENRE=Blues
TTITLE0=Fremde Zärtlichkeit
TTITLE1=Ich bin
TTITLE2=Mut zum Leben
TTITLE3=Oh, Oh, Oh
TTITLE4=Liebe macht uns frei
TTITLE5=Du hast schon längst Goodye gesagt
TTITLE6=Wo hab ich dich schon gesehn
TTITLE7=Tausend Arten verrückt zu sein
TTITLE8=Wenn ich will
TTITLE9=Wo kommst du her, wo gehst du hin
EXTD=
EXTT0=
EXTT1=
EXTT2=
EXTT3=
EXTT4=
EXTT5=
EXTT6=
EXTT7=
EXTT8=
EXTT9=
PLAYORDER=
